<svg xmlns="http://www.w3.org/2000/svg" width="39.884" height="38.223" viewBox="0 0 39.884 38.223">
  <g id="Group_11" data-name="Group 11" transform="translate(-1732 -48.536)">
    <g id="Icon_feather-shopping-cart" data-name="Icon feather-shopping-cart" transform="translate(1733.667 50.202)">
      <path id="Path_14" data-name="Path 14" d="M16.656,34.995a1.661,1.661,0,1,1-1.661-1.661A1.661,1.661,0,0,1,16.656,34.995Z" transform="translate(-1.704 -1.767)" fill="none" stroke="#000" stroke-linecap="round" stroke-linejoin="round" stroke-width="3.333"/>
      <path id="Path_15" data-name="Path 15" d="M34.989,34.995a1.661,1.661,0,1,1-1.661-1.661A1.661,1.661,0,0,1,34.989,34.995Z" transform="translate(-1.761 -1.767)" fill="none" stroke="#000" stroke-linecap="round" stroke-linejoin="round" stroke-width="3.333"/>
      <path id="Path_16" data-name="Path 16" d="M1.667,1.667H8.312l4.453,22.246a3.323,3.323,0,0,0,3.323,2.675H32.236a3.323,3.323,0,0,0,3.323-2.675L38.217,9.974H9.974" transform="translate(-1.667 -1.667)" fill="none" stroke="#000" stroke-linecap="round" stroke-linejoin="round" stroke-width="3.333"/>
    </g>
  </g>
</svg>
