<svg xmlns="http://www.w3.org/2000/svg" width="39.638" height="39.638" viewBox="0 0 39.638 39.638">
  <path id="Icon_awesome-facebook-square" data-name="Icon awesome-facebook-square" d="M35.391,2.25H4.247A4.247,4.247,0,0,0,0,6.5V37.641a4.247,4.247,0,0,0,4.247,4.247H16.39V28.412H10.816V22.069H16.39V17.234c0-5.5,3.274-8.536,8.288-8.536a33.769,33.769,0,0,1,4.912.428v5.4H26.824c-2.726,0-3.576,1.692-3.576,3.427v4.119h6.085l-.973,6.343H23.247V41.888H35.391a4.247,4.247,0,0,0,4.247-4.247V6.5A4.247,4.247,0,0,0,35.391,2.25Z" transform="translate(0 -2.25)"/>
</svg>
