<svg xmlns="http://www.w3.org/2000/svg" width="31.667" height="31.667" viewBox="0 0 31.667 31.667">
  <g id="Icon_feather-instagram" data-name="Icon feather-instagram" transform="translate(-1.667 -1.667)">
    <path id="Path_11" data-name="Path 11" d="M10.417,3.333H24.583a7.083,7.083,0,0,1,7.083,7.083V24.583a7.083,7.083,0,0,1-7.083,7.083H10.417a7.083,7.083,0,0,1-7.083-7.083V10.417a7.083,7.083,0,0,1,7.083-7.083Z" transform="translate(0 0)" fill="none" stroke="#000" stroke-linecap="round" stroke-linejoin="round" stroke-width="3.333"/>
    <path id="Path_12" data-name="Path 12" d="M24.677,18.1A5.667,5.667,0,1,1,19.9,13.322,5.667,5.667,0,0,1,24.677,18.1Z" transform="translate(-1.511 -1.489)" fill="none" stroke="#000" stroke-linecap="round" stroke-linejoin="round" stroke-width="3.333"/>
    <path id="Path_13" data-name="Path 13" d="M29.167,10.833h0" transform="translate(-3.875 -1.125)" fill="none" stroke="#000" stroke-linecap="round" stroke-linejoin="round" stroke-width="3.333"/>
  </g>
</svg>
