<svg xmlns="http://www.w3.org/2000/svg" width="22.961" height="20.665" viewBox="0 0 22.961 20.665">
  <g id="Icon_material-photo-camera" data-name="Icon material-photo-camera" transform="translate(-3.333 -3.333)" opacity="0.36">
    <path id="Path_17" data-name="Path 17" d="M22.014,18.34a3.674,3.674,0,1,1-3.674-3.674A3.674,3.674,0,0,1,22.014,18.34Z" transform="translate(-3.526 -3.526)"/>
    <path id="Path_18" data-name="Path 18" d="M11.37,3.333l-2.1,2.3H5.629a2.3,2.3,0,0,0-2.3,2.3V21.7a2.3,2.3,0,0,0,2.3,2.3H24a2.3,2.3,0,0,0,2.3-2.3V7.926a2.3,2.3,0,0,0-2.3-2.3H20.359l-2.1-2.3Zm3.444,17.221a5.74,5.74,0,1,1,5.74-5.74,5.742,5.742,0,0,1-5.74,5.74Z" transform="translate(0 0)"/>
  </g>
</svg>
