<svg xmlns="http://www.w3.org/2000/svg" width="57.631" height="49.626" viewBox="0 0 57.631 49.626">
  <g id="Group_3" data-name="Group 3" transform="translate(-4.999 50.312)">
    <path id="Icon_awesome-heart" data-name="Icon awesome-heart" d="M52.037,5.641C45.868.468,36.695,1.4,31.033,7.147L28.816,9.4,26.6,7.147C20.948,1.4,11.763.468,5.595,5.641A15.733,15.733,0,0,0,4.48,28.67L26.261,50.8a3.568,3.568,0,0,0,5.1,0L53.14,28.67a15.724,15.724,0,0,0-1.1-23.029Z" transform="translate(5 -52.559)" fill="#fff"/>
    <path id="Icon_ionic-ios-heart-empty" data-name="Icon ionic-ios-heart-empty" d="M35.721,3.938h-.106A12.107,12.107,0,0,0,25.507,9.47,12.107,12.107,0,0,0,15.4,3.938h-.106A12.03,12.03,0,0,0,3.375,15.961c0,3.937,1.724,9.523,5.086,14.12C14.867,38.838,25.507,46.5,25.507,46.5s10.64-7.661,17.046-16.418c3.362-4.6,5.086-10.183,5.086-14.12A12.03,12.03,0,0,0,35.721,3.938Zm4.426,24.388c-4.533,6.2-11.438,11.928-14.641,14.428-3.2-2.5-10.108-8.236-14.641-14.439A22.955,22.955,0,0,1,6.354,15.961a9.028,9.028,0,0,1,8.959-9.034h.1a8.921,8.921,0,0,1,4.373,1.149,9.3,9.3,0,0,1,3.235,3.032,2.989,2.989,0,0,0,5,0,9.39,9.39,0,0,1,3.235-3.032,8.921,8.921,0,0,1,4.373-1.149h.1a9.028,9.028,0,0,1,8.959,9.034A23.245,23.245,0,0,1,40.148,28.325Z" transform="translate(8.624 -50.371)"/>
  </g>
</svg>
