<svg id="return" xmlns="http://www.w3.org/2000/svg" width="24" height="24" viewBox="0 0 24 24">
  <g id="Group_36" data-name="Group 36">
    <g id="Group_35" data-name="Group 35">
      <path id="Path_33" data-name="Path 33" d="M20.744,1.084a1,1,0,0,0-1,1v.834A11.815,11.815,0,0,0,11.938,0,11.972,11.972,0,0,0,0,11.98a1,1,0,0,0,2,0A9.97,9.97,0,0,1,11.938,2a9.836,9.836,0,0,1,6.441,2.379h-.916a1,1,0,1,0,0,2h3.282a1,1,0,0,0,1-1v-3.3A1,1,0,0,0,20.744,1.084Z" fill="#5d5d5d"/>
    </g>
  </g>
  <g id="Group_38" data-name="Group 38" transform="translate(2.361 11.02)">
    <g id="Group_37" data-name="Group 37">
      <path id="Path_34" data-name="Path 34" d="M58.415,176.32a1,1,0,0,0-1,1,9.97,9.97,0,0,1-9.937,9.98,9.836,9.836,0,0,1-6.38-2.325h.96a1,1,0,1,0,0-2H38.776l-.026,0a.963.963,0,0,0-.114.012c-.028,0-.056.006-.083.013a1,1,0,0,0-.1.03c-.03.01-.061.02-.09.033s-.053.028-.08.043a1.073,1.073,0,0,0-.092.057c-.007.005-.016.008-.023.014s-.03.029-.046.043a.785.785,0,0,0-.139.146c-.02.025-.039.051-.056.078s-.032.057-.047.086a.92.92,0,0,0-.04.088c-.011.031-.021.062-.029.094s-.017.061-.022.092-.008.071-.011.107c0,.02-.006.04-.006.061v3.3a1,1,0,0,0,2,0v-.8a11.819,11.819,0,0,0,7.7,2.824,11.972,11.972,0,0,0,11.938-11.98A1,1,0,0,0,58.415,176.32Z" transform="translate(-37.776 -176.32)" fill="#5d5d5d"/>
    </g>
  </g>
</svg>
