<svg id="Icon_awesome-share-alt-square" data-name="Icon awesome-share-alt-square" xmlns="http://www.w3.org/2000/svg" width="40.714" height="40.714" viewBox="0 0 40.714 40.714">
  <path id="Icon_awesome-share-alt-square-2" data-name="Icon awesome-share-alt-square" d="M40.714,6.612V38.6a4.362,4.362,0,0,1-4.362,4.362H4.362A4.362,4.362,0,0,1,0,38.6V6.612A4.362,4.362,0,0,1,4.362,2.25h31.99A4.362,4.362,0,0,1,40.714,6.612ZM27.628,26.242a5.071,5.071,0,0,0-3.434,1.333L18.018,23.87a5.12,5.12,0,0,0,0-2.526l6.176-3.706a5.075,5.075,0,1,0-1.5-2.493L16.52,18.851a5.089,5.089,0,1,0,0,7.512L22.7,30.069a5.09,5.09,0,1,0,4.931-3.826Z" transform="translate(0 -2.25)"/>
</svg>
