<svg xmlns="http://www.w3.org/2000/svg" width="40.137" height="40.137" viewBox="0 0 40.137 40.137">
  <path id="Icon_zocial-instagram" data-name="Icon zocial-instagram" d="M3.607,40.133a4.771,4.771,0,0,1-2.2-1.247A4.416,4.416,0,0,1,.2,36.792C.055,36.235.047,35.709.047,20.22.039,2.817.015,3.774.47,2.794A4.681,4.681,0,0,1,2.753.527C3.764.08,2.776.1,20.312.127L36.468.143l.5.173a4.757,4.757,0,0,1,3.012,3.012l.173.5.016,16.156c.024,17.944.063,16.6-.51,17.764a4.659,4.659,0,0,1-1.984,1.984c-1.145.565.157.525-17.6.518C6.5,40.242,4.007,40.227,3.607,40.133Zm31.261-4.776c.643-.455.659-.5.682-3.49.024-2.91.008-3.059-.471-3.521-.431-.424-.635-.447-3.474-.439l-2.588.008-.353.188a1.928,1.928,0,0,0-.58.549L27.849,29l-.008,2.6c-.008,1.42.024,2.714.063,2.863a1.465,1.465,0,0,0,.8.988l.392.2,2.721-.024,2.714-.024ZM21.677,27.741A7.784,7.784,0,0,0,27.684,21.7a9.581,9.581,0,0,0,.086-2.549,7.9,7.9,0,0,0-4.023-5.772,8.416,8.416,0,0,0-2.07-.769c-.149-.016-.463-.063-.7-.1a7.748,7.748,0,0,0-7,3,7.673,7.673,0,0,0,.149,9.529,7.82,7.82,0,0,0,5.176,2.816A8.185,8.185,0,0,0,21.677,27.741ZM8.023,22.651a12.446,12.446,0,0,1,1.035-7.96A11.537,11.537,0,0,1,11.4,11.468,12.232,12.232,0,0,1,22.077,7.985a12.424,12.424,0,0,1,9.992,9.1,12.18,12.18,0,0,1,.322,4.392,8.635,8.635,0,0,1-.322,1.694c-.024.039-.016.071.024.078.3.031,3.349.024,3.4-.016.047-.024.063-3.506.055-8.752l-.024-8.713-.235-.337a1.959,1.959,0,0,0-.588-.518l-.353-.18L20.03,4.754,5.717,4.77,5.4,4.982a2.063,2.063,0,0,0-.5.51l-.188.3-.024,8.666c-.008,4.768-.008,8.7.016,8.745a8.44,8.44,0,0,0,1.749.078H8.164Z" transform="translate(-0.044 -0.117)"/>
</svg>
