<svg xmlns="http://www.w3.org/2000/svg" width="30.503" height="23.855" viewBox="0 0 30.503 23.855">
  <g id="tag" transform="translate(0 -53.064)">
    <path id="Path_32" data-name="Path 32" d="M8.227,76.233a2.344,2.344,0,0,0,3.313,0L22.884,64.89a3.322,3.322,0,0,0,.739-1.127,11.926,11.926,0,0,0,3.226.482c2.418-.013,3.219-1.071,3.483-1.7s.451-1.942-1.246-3.67l-.056-.056a13.561,13.561,0,0,0-4.316-2.743c-.319-.132-.639-.251-.952-.363v-.019a2.564,2.564,0,0,0-2.53-2.53l-6.8-.094a3.305,3.305,0,0,0-2.4.977L.686,65.385a2.344,2.344,0,0,0,0,3.313Zm8.744-19.11a1.938,1.938,0,0,1,3.288,1.654,13.521,13.521,0,0,0,2.587,1.409c.338.138.664.263.977.37l-.038-2.731c.056.025.106.044.163.069a11.806,11.806,0,0,1,3.677,2.318l.038.038c.814.833.9,1.365.833,1.528-.213.507-2.5.958-5.969-.489a13.4,13.4,0,0,1-2.737-1.522c-.025.031-.056.063-.081.094a1.935,1.935,0,1,1-2.737-2.737Z" transform="translate(0)" fill="#5d5d5d"/>
  </g>
</svg>
