<svg xmlns="http://www.w3.org/2000/svg" width="14.077" height="14.077" viewBox="0 0 14.077 14.077">
  <g id="Group_44" data-name="Group 44" transform="translate(-423 -678.771)">
    <path id="Icon_metro-cross" data-name="Icon metro-cross" d="M16.519,13.237h0l-4.27-4.271L16.519,4.7h0a.441.441,0,0,0,0-.622L14.5,2.057a.441.441,0,0,0-.622,0h0L9.609,6.327,5.339,2.057h0a.441.441,0,0,0-.622,0L2.7,4.074a.441.441,0,0,0,0,.622h0L6.97,8.967,2.7,13.237h0a.441.441,0,0,0,0,.622l2.017,2.017a.441.441,0,0,0,.622,0h0l4.271-4.271,4.271,4.271h0a.441.441,0,0,0,.622,0l2.017-2.017a.441.441,0,0,0,0-.622Z" transform="translate(420.43 676.843)" fill="#ff0404" opacity="0.35"/>
  </g>
</svg>
