<svg xmlns="http://www.w3.org/2000/svg" width="21" height="21" viewBox="0 0 21 21">
  <g id="Icon_feather-shopping-cart" data-name="Icon feather-shopping-cart" transform="translate(-0.5 -0.5)">
    <path id="Path_13" data-name="Path 13" d="M13.965,30.982A.982.982,0,1,1,12.982,30,.982.982,0,0,1,13.965,30.982Z" transform="translate(-4.538 -11.465)" fill="none" stroke="#000" stroke-linecap="round" stroke-linejoin="round" stroke-width="2"/>
    <path id="Path_14" data-name="Path 14" d="M30.465,30.982A.982.982,0,1,1,29.482,30,.982.982,0,0,1,30.465,30.982Z" transform="translate(-11.929 -11.465)" fill="none" stroke="#000" stroke-linecap="round" stroke-linejoin="round" stroke-width="2"/>
    <path id="Path_15" data-name="Path 15" d="M1.5,1.5H4.955L7.269,13.2A1.732,1.732,0,0,0,9,14.606h8.395A1.732,1.732,0,0,0,19.118,13.2L20.5,5.869H5.818" transform="translate(0 0)" fill="none" stroke="#000" stroke-linecap="round" stroke-linejoin="round" stroke-width="2"/>
  </g>
</svg>
