<svg xmlns="http://www.w3.org/2000/svg" width="30" height="30" viewBox="0 0 30 30">
  <g id="Icon_feather-instagram" data-name="Icon feather-instagram" transform="translate(-1.5 -1.5)" opacity="0.77">
    <path id="Path_4" data-name="Path 4" d="M9.75,3h13.5A6.75,6.75,0,0,1,30,9.75v13.5A6.75,6.75,0,0,1,23.25,30H9.75A6.75,6.75,0,0,1,3,23.25V9.75A6.75,6.75,0,0,1,9.75,3Z" transform="translate(0 0)" fill="none" stroke="#fff" stroke-linecap="round" stroke-linejoin="round" stroke-width="3"/>
    <path id="Path_5" data-name="Path 5" d="M24,17.055A6,6,0,1,1,18.945,12,6,6,0,0,1,24,17.055Z" transform="translate(-1.511 -1.489)" fill="none" stroke="#fff" stroke-linecap="round" stroke-linejoin="round" stroke-width="3"/>
    <path id="Path_6" data-name="Path 6" d="M26.25,9.75h0" transform="translate(-2.325 -0.675)" fill="none" stroke="#fff" stroke-linecap="round" stroke-linejoin="round" stroke-width="3"/>
  </g>
</svg>
