<svg xmlns="http://www.w3.org/2000/svg" width="26.307" height="28.586" viewBox="0 0 26.307 28.586">
  <path id="Icon_feather-phone-call" data-name="Icon feather-phone-call" d="M17.506,5.933a5.541,5.541,0,0,1,4.377,4.377M17.506,1.5a9.974,9.974,0,0,1,8.81,8.8m-1.108,8.843v3.325a2.216,2.216,0,0,1-.718,1.642c-.46.422-1.985,2.878-2.607,2.822-3.41-.371-5.777-3.784-8.655-5.65a21.61,21.61,0,0,1-6.649-6.649,21.931,21.931,0,0,1-3.4-9.608A2.216,2.216,0,0,1,5.382,2.608H8.707a2.216,2.216,0,0,1,2.216,1.906A14.229,14.229,0,0,0,11.7,7.628a2.216,2.216,0,0,1-.5,2.338L9.793,11.374a17.731,17.731,0,0,0,6.649,6.649l1.407-1.407a2.216,2.216,0,0,1,2.338-.5,14.229,14.229,0,0,0,3.114.776A2.216,2.216,0,0,1,25.208,19.143Z" transform="translate(-1.667 0.156)" fill="none" stroke="#777" stroke-linecap="round" stroke-linejoin="round" stroke-width="3" opacity="0.8"/>
</svg>
