<svg xmlns="http://www.w3.org/2000/svg" width="29" height="19" viewBox="0 0 29 19">
  <g id="Group_17" data-name="Group 17" transform="translate(-90.9 -15.165)">
    <g id="Group_16" data-name="Group 16" transform="translate(90.9 15.165)">
      <g id="Icon_ionic-ios-menu" data-name="Icon ionic-ios-menu" transform="translate(0 1.908)">
        <path id="Path_8" data-name="Path 8" d="M16,13.125H5c-.275,0-.5-.675-.5-1.5h0c0-.825.225-1.5.5-1.5H16c.275,0,.5.675.5,1.5h0C16.5,12.45,16.275,13.125,16,13.125Z" transform="translate(-4.5 -10.125)"/>
        <path id="Path_9" data-name="Path 9" d="M16,19.875H5c-.275,0-.5-.675-.5-1.5h0c0-.825.225-1.5.5-1.5H16c.275,0,.5.675.5,1.5h0C16.5,19.2,16.275,19.875,16,19.875Z" transform="translate(-4.5 -9.829)"/>
        <path id="Path_10" data-name="Path 10" d="M27.5,26.625H5.5c-.55,0-1-.675-1-1.5h0c0-.825.45-1.5,1-1.5h22c.55,0,1,.675,1,1.5h0C28.5,25.95,28.05,26.625,27.5,26.625Z" transform="translate(-4.5 -9.533)"/>
      </g>
      <path id="Icon_ionic-ios-search" data-name="Icon ionic-ios-search" d="M16.159,13.47,11.637,9.414a5.572,5.572,0,0,0,1.483-3.658C13.163,2.535,10.262-.042,6.637,0S.043,2.693,0,5.914s2.858,5.8,6.483,5.756a7.2,7.2,0,0,0,4.152-1.352l4.492,4.03a.728.728,0,0,0,.507.188.76.76,0,0,0,.486-.177A.584.584,0,0,0,16.159,13.47ZM6.5,10.416a5.332,5.332,0,0,1-3.624-1.3A4.2,4.2,0,0,1,1.41,5.9,4.418,4.418,0,0,1,2.961,2.643a5.586,5.586,0,0,1,3.66-1.385,5.332,5.332,0,0,1,3.624,1.3,4.2,4.2,0,0,1,1.466,3.219A4.418,4.418,0,0,1,10.16,9.031,5.586,5.586,0,0,1,6.5,10.416Z" transform="matrix(0.995, 0.105, -0.105, 0.995, 12.743, 0)"/>
    </g>
  </g>
</svg>
