<svg xmlns="http://www.w3.org/2000/svg" width="24.522" height="27.042" viewBox="0 0 24.522 27.042">
  <path id="Icon_simple-email" data-name="Icon simple-email" d="M26.175,12.481a13.946,13.946,0,0,1-.449,3.025,8.753,8.753,0,0,1-1.176,2.656,6.206,6.206,0,0,1-1.994,1.888,5.627,5.627,0,0,1-2.912.718,4.221,4.221,0,0,1-2.106-.515,3.606,3.606,0,0,1-1.423-1.458A4.51,4.51,0,0,1,12.3,20.71,3.88,3.88,0,0,1,8.97,18.919a5.864,5.864,0,0,1-.828-2.075,8.949,8.949,0,0,1-.108-2.707,12.575,12.575,0,0,1,.825-3.315,9.012,9.012,0,0,1,1.524-2.54,6.448,6.448,0,0,1,2.1-1.619A5.847,5.847,0,0,1,15.026,6.1a7.924,7.924,0,0,1,1.524.13,6.239,6.239,0,0,1,1.183.355,6.4,6.4,0,0,1,.98.517c.3.193.6.392.9.595l-.74,8.517a2.831,2.831,0,0,0,.022,1,1.4,1.4,0,0,0,.3.615,1.1,1.1,0,0,0,.493.321,1.832,1.832,0,0,0,1.734-.341,3.7,3.7,0,0,0,.929-1.183,7.618,7.618,0,0,0,.625-1.778,12.2,12.2,0,0,0,.274-2.214,14.147,14.147,0,0,0-.348-4.137,8.223,8.223,0,0,0-1.531-3.2A7.109,7.109,0,0,0,18.63,3.229a9.96,9.96,0,0,0-4-.732,8.828,8.828,0,0,0-3.954.862,9.073,9.073,0,0,0-3,2.389A11.467,11.467,0,0,0,5.707,9.343a16.2,16.2,0,0,0-.828,4.478A14.891,14.891,0,0,0,5.3,18.39a8.253,8.253,0,0,0,1.67,3.275A6.967,6.967,0,0,0,9.8,23.632a10.851,10.851,0,0,0,3.9.652,13.37,13.37,0,0,0,2.562-.275c.422-.084.823-.186,1.2-.3a9.068,9.068,0,0,0,1.038-.372l.536,2.41a5.946,5.946,0,0,1-1.161.575,11.174,11.174,0,0,1-1.372.4,13.389,13.389,0,0,1-2.866.321A15.029,15.029,0,0,1,8.419,26.2,9.616,9.616,0,0,1,4.61,23.7a10.518,10.518,0,0,1-2.286-4.135,17.638,17.638,0,0,1-.639-5.74,17.506,17.506,0,0,1,1.1-5.509A13.634,13.634,0,0,1,5.429,3.936,12.059,12.059,0,0,1,9.466,1.048,12.639,12.639,0,0,1,14.695,0a13.2,13.2,0,0,1,5.066.907,9.853,9.853,0,0,1,3.657,2.552A10.472,10.472,0,0,1,25.587,7.4,15.074,15.074,0,0,1,26.175,12.481ZM11.663,14.137a5.748,5.748,0,0,0,.3,2.851,1.528,1.528,0,0,0,1.47.963,1.624,1.624,0,0,0,.5-.093,1.8,1.8,0,0,0,.58-.348,3.093,3.093,0,0,0,.588-.71,5.447,5.447,0,0,0,.541-1.2l.578-6.617a3.453,3.453,0,0,0-.9-.118,3.108,3.108,0,0,0-1.5.343,2.961,2.961,0,0,0-1.06,1.007,5.914,5.914,0,0,0-.7,1.656,14.048,14.048,0,0,0-.4,2.264Z" transform="translate(-1.67)" fill="#777"/>
</svg>
