<svg xmlns="http://www.w3.org/2000/svg" width="45.001" height="38.087" viewBox="0 0 45.001 38.087">
  <g id="Group_33" data-name="Group 33" transform="translate(-24.518 -210.454)">
    <g id="Group_32" data-name="Group 32" transform="translate(25.78 210.977)">
      <g id="Group_31" data-name="Group 31" transform="translate(3.686)">
        <g id="Group_30" data-name="Group 30" transform="translate(3.818)">
          <path id="Path_25" data-name="Path 25" d="M4094.928-2251.346v-.469s.008-4.335,1.971-6.853a5.714,5.714,0,0,1,3.849-1.783,7.509,7.509,0,0,1,4.881,1.783c2.5,2.334,2.629,7.322,2.629,7.322" transform="translate(-4094.928 2261.469)" fill="none" stroke="#000" stroke-linecap="round" stroke-linejoin="round" stroke-width="3"/>
          <path id="Path_26" data-name="Path 26" d="M4098.36-2230.149c.618,0,11.323-5.455,12.764-7.205s14.719-14.925,14.719-14.925a6.01,6.01,0,0,1,3.6,6.382c-.515,4.838-4.323,8.543-4.323,8.543s-4.528-1.544-7.411,1.441a68.872,68.872,0,0,0-6.587,8.955l-12.764.515Z" transform="translate(-4094.758 2262.509)" fill="none" stroke="#000" stroke-linecap="round" stroke-linejoin="round" stroke-width="3"/>
          <path id="Path_27" data-name="Path 27" d="M4123.753-2238.161v10.6" transform="translate(-4093.492 2263.213)" fill="none" stroke="#000" stroke-linecap="round" stroke-width="3"/>
        </g>
        <path id="Path_28" data-name="Path 28" d="M4091.3-2248.456H4113s.09,5.271-6.825,6.847c-.951.036-2.167.174-3.271.213-5.083.179-6.44-.259-9-2.022A5.765,5.765,0,0,1,4091.3-2248.456Z" transform="translate(-4091.292 2262.699)" fill="none" stroke="#000" stroke-linecap="round" stroke-linejoin="round" stroke-width="3"/>
      </g>
      <path id="Path_29" data-name="Path 29" d="M4091.466-2247.867s-4.931,13.69-3.387,14.307,17.4,0,17.4,0" transform="translate(-4087.78 2262.729)" fill="none" stroke="#000" stroke-width="3"/>
    </g>
    <path id="Path_30" data-name="Path 30" d="M4111.694-2248.456l1.441,8.132" transform="translate(-4060.808 2473.676)" fill="none" stroke="#000" stroke-width="3"/>
  </g>
</svg>
