<svg xmlns="http://www.w3.org/2000/svg" width="45.298" height="43.5" viewBox="0 0 45.298 43.5">
  <g id="Group_34" data-name="Group 34" transform="translate(-22.818 -145.671)">
    <g id="Group_28" data-name="Group 28" transform="translate(24.6 147.171)">
      <path id="Path_23" data-name="Path 23" d="M4086.6-2308.463s.645-6.458,3.428-9.8l.6-.8,1.117-1.55c1.7-2.062,2.957-3.212,4.3-3.212,1.67,0,11.246,15.366,11.246,15.366Z" transform="translate(-4086.6 2323.829)" fill="none" stroke="#000" stroke-width="3"/>
      <path id="Path_24" data-name="Path 24" d="M4086.6-2305.843h31.182s-1.612-5.554.764-7.626c0,0-.105.206.128,0l.128-.14s1.32-1.194,1.321-1.2c-.23.248-.958.714-1.321,1.081-1.22,1.253,1.756-2,3.139-2.148a23.553,23.553,0,0,1,5.352-.165c.094.019.339-.2.684,0,.744.285.564,2.206.564,2.206s.7,2.27-2.7,2.27-2.8,2.229-2.8,2.229.339,6.973-2.037,10.04-8.232,7.461-11.2,7.792-8.316.5-10.522,0-7.892-4.145-7.892-4.145-3.734-4.062-4.158-6.549S4086.6-2305.843,4086.6-2305.843Z" transform="translate(-4086.6 2325.83)" fill="none" stroke="#000" stroke-width="3"/>
    </g>
    <g id="Ellipse_8" data-name="Ellipse 8" transform="translate(26 178.171)" fill="none" stroke="#000" stroke-width="3">
      <circle cx="5.5" cy="5.5" r="5.5" stroke="none"/>
      <circle cx="5.5" cy="5.5" r="4" fill="none"/>
    </g>
    <g id="Ellipse_9" data-name="Ellipse 9" transform="translate(48.696 178.171)" fill="none" stroke="#000" stroke-width="3">
      <circle cx="5.5" cy="5.5" r="5.5" stroke="none"/>
      <circle cx="5.5" cy="5.5" r="4" fill="none"/>
    </g>
  </g>
</svg>
